<svg xmlns="http://www.w3.org/2000/svg" xmlns:xlink="http://www.w3.org/1999/xlink" preserveAspectRatio="xMidYMid" width="70" height="58" viewBox="0 0 70 58">
  <defs>
    <style>

      .cls-2 {
        fill: #dddddd;
      }
    </style>
  </defs>
  <path d="M35.000,0.015 C15.678,0.015 0.015,15.632 0.015,34.895 C0.015,43.291 2.991,50.990 7.946,57.008 C8.711,50.907 14.825,45.745 23.398,43.302 C26.531,46.210 30.577,47.975 35.000,47.975 C39.320,47.975 43.286,46.299 46.387,43.511 C55.034,46.171 61.017,51.632 61.212,57.984 C66.669,51.832 69.985,43.751 69.985,34.895 C69.985,15.632 54.322,0.015 35.000,0.015 ZM35.000,43.845 C32.767,43.845 30.662,43.234 28.794,42.174 C24.290,39.617 21.190,34.391 21.190,28.355 C21.190,19.814 27.385,12.866 35.000,12.866 C42.615,12.866 48.810,19.814 48.810,28.355 C48.810,34.484 45.614,39.776 40.997,42.286 C39.181,43.275 37.150,43.845 35.000,43.845 Z" id="path-1" class="cls-2" fill-rule="evenodd"/>
</svg>
