<svg xmlns="http://www.w3.org/2000/svg" xmlns:xlink="http://www.w3.org/1999/xlink" preserveAspectRatio="xMidYMid" width="31" height="31" viewBox="0 0 31 31">
  <defs>
    <style>

      .cls-2 {
        fill: #2d8db4;
        stroke: #2d8db4;
        stroke-linejoin: round;
        stroke-width: 2px;
        fill-opacity: 0;
      }
    </style>
  </defs>
  <path d="M13.790,21.143 C13.558,21.143 13.357,21.058 13.187,20.888 C13.187,20.888 8.393,16.094 8.393,16.094 C8.223,15.924 8.138,15.723 8.138,15.491 C8.138,15.259 8.223,15.058 8.393,14.888 C8.393,14.888 9.759,13.522 9.759,13.522 C9.928,13.353 10.129,13.268 10.362,13.268 C10.594,13.268 10.795,13.353 10.964,13.522 C10.964,13.522 13.790,16.348 13.790,16.348 C13.790,16.348 20.045,10.094 20.045,10.094 C20.214,9.924 20.415,9.839 20.647,9.839 C20.879,9.839 21.080,9.924 21.250,10.094 C21.250,10.094 22.616,11.460 22.616,11.460 C22.786,11.630 22.871,11.830 22.871,12.063 C22.871,12.295 22.786,12.496 22.616,12.665 C22.616,12.665 14.393,20.888 14.393,20.888 C14.223,21.058 14.022,21.143 13.790,21.143 ZM24.659,6.337 C23.904,5.583 22.995,5.205 21.933,5.205 C21.933,5.205 9.076,5.205 9.076,5.205 C8.013,5.205 7.105,5.583 6.350,6.337 C5.596,7.092 5.219,8.000 5.219,9.062 C5.219,9.062 5.219,21.919 5.219,21.919 C5.219,22.982 5.596,23.891 6.350,24.645 C7.105,25.400 8.013,25.777 9.076,25.777 C9.076,25.777 21.933,25.777 21.933,25.777 C22.995,25.777 23.904,25.400 24.659,24.645 C25.413,23.891 25.790,22.982 25.790,21.919 C25.790,21.919 25.790,9.062 25.790,9.062 C25.790,8.000 25.413,7.092 24.659,6.337 Z" id="path-1" class="cls-2" fill-rule="evenodd"/>
</svg>
