<svg xmlns="http://www.w3.org/2000/svg" xmlns:xlink="http://www.w3.org/1999/xlink" preserveAspectRatio="xMidYMid" width="57" height="36" viewBox="0 0 57 36">
  <defs>
    <style>

      .cls-2 {
        fill: #000000;
        stroke: #2d8db4;
        stroke-linejoin: round;
        stroke-width: 2px;
        fill-opacity: 0;
      }
    </style>
  </defs>
  <path d="M51.219,14.132 C48.615,13.337 45.992,11.720 43.448,11.847 C39.957,12.010 38.585,9.397 36.915,7.852 C35.734,6.764 35.822,4.494 33.176,5.118 C31.223,5.581 28.584,5.413 27.471,6.591 C26.085,8.060 24.984,7.892 23.458,7.770 C20.977,7.564 18.535,7.264 16.103,6.675 C14.232,6.226 12.236,6.107 10.308,6.817 C8.976,7.314 7.807,7.742 9.072,9.417 C9.837,10.424 9.741,11.276 8.391,11.939 C7.648,12.300 7.028,13.019 6.528,13.694 C4.377,16.587 4.497,19.357 6.847,19.548 C10.025,19.807 13.267,21.074 16.485,18.834 C18.676,17.307 21.756,18.727 23.075,21.158 C23.611,22.145 24.331,23.044 25.097,24.170 C21.836,23.872 21.912,26.317 20.856,27.915 C24.041,28.907 25.505,26.854 27.083,25.151 C27.789,24.389 28.619,23.523 29.467,24.359 C30.783,25.668 32.415,25.430 33.991,25.704 C33.956,25.993 33.825,26.199 33.647,26.359 C33.111,26.832 32.150,26.905 32.128,27.770 C32.860,28.386 34.414,28.228 34.466,29.503 C34.473,29.684 34.451,29.896 34.388,30.144 C34.244,30.732 35.187,31.135 35.503,30.938 C37.698,29.600 40.324,29.234 42.474,27.571 C42.045,27.539 41.607,27.438 41.195,27.497 C40.006,27.659 38.916,27.546 38.537,26.281 C38.162,25.031 39.744,24.557 40.162,24.477 C43.830,23.792 46.695,21.473 50.064,20.241 C52.618,19.305 50.383,16.892 51.808,15.607 C52.115,15.324 52.152,14.417 51.219,14.132 Z" id="path-1" class="cls-2" fill-rule="evenodd"/>
</svg>
