<svg xmlns="http://www.w3.org/2000/svg" xmlns:xlink="http://www.w3.org/1999/xlink" preserveAspectRatio="xMidYMid" width="12" height="12" viewBox="0 0 12 12">
  <defs>
    <style>

      .cls-2 {
        fill: #a6a6a6;
      }
    </style>
  </defs>
  <path d="M10.655,10.624 C10.655,10.624 11.441,10.624 11.441,10.624 C11.753,10.624 12.005,10.849 12.005,11.127 C12.005,11.127 12.005,11.495 12.005,11.495 C12.005,11.773 11.753,11.998 11.441,11.998 C11.441,11.998 0.570,11.998 0.570,11.998 C0.258,11.998 0.006,11.773 0.006,11.495 C0.006,11.495 0.006,11.127 0.006,11.127 C0.006,10.849 0.258,10.624 0.570,10.624 C0.570,10.624 1.356,10.624 1.356,10.624 C1.378,8.696 2.220,6.939 3.541,5.941 C2.251,4.967 1.416,3.262 1.357,1.396 C1.357,1.396 0.570,1.396 0.570,1.396 C0.258,1.396 0.006,1.171 0.006,0.893 C0.006,0.893 0.006,0.504 0.006,0.504 C0.006,0.227 0.258,0.001 0.570,0.001 C0.570,0.001 11.441,0.001 11.441,0.001 C11.753,0.001 12.005,0.227 12.005,0.504 C12.005,0.504 12.005,0.893 12.005,0.893 C12.005,1.171 11.753,1.396 11.441,1.396 C11.441,1.396 10.654,1.396 10.654,1.396 C10.594,3.262 9.760,4.967 8.470,5.941 C9.791,6.940 10.634,8.697 10.655,10.624 ZM6.990,5.508 C6.990,5.508 7.201,5.417 7.201,5.417 C8.595,4.808 9.550,3.200 9.620,1.396 C9.620,1.396 2.391,1.396 2.391,1.396 C2.461,3.200 3.415,4.809 4.811,5.418 C4.811,5.418 5.021,5.507 5.021,5.507 C5.204,5.587 5.320,5.754 5.320,5.935 C5.320,6.117 5.204,6.284 5.021,6.364 C5.021,6.364 4.811,6.458 4.811,6.458 C3.381,7.083 2.415,8.737 2.390,10.624 C2.390,10.624 9.620,10.624 9.620,10.624 C9.595,8.737 8.631,7.082 7.200,6.458 C7.200,6.458 6.989,6.362 6.989,6.362 C6.807,6.282 6.692,6.117 6.692,5.935 C6.692,5.753 6.807,5.588 6.990,5.508 ZM8.603,10.152 C8.603,10.152 3.711,10.152 3.711,10.152 C3.879,9.085 4.904,8.244 6.158,8.244 C7.411,8.244 8.436,9.085 8.603,10.152 ZM4.168,4.411 C4.168,4.411 7.835,4.411 7.835,4.411 C7.383,4.862 6.735,5.152 6.001,5.152 C5.267,5.152 4.618,4.861 4.168,4.411 Z" id="path-1" class="cls-2" fill-rule="evenodd"/>
</svg>
