<svg xmlns="http://www.w3.org/2000/svg" xmlns:xlink="http://www.w3.org/1999/xlink" preserveAspectRatio="xMidYMid" width="15" height="11" viewBox="0 0 15 11">
  <defs>
    <style>

      .cls-2 {
        fill: #000000;
      }
    </style>
  </defs>
  <path d="M14.997,5.633 C14.997,5.633 14.997,5.633 14.997,5.633 C14.997,5.618 14.990,5.605 14.988,5.590 C14.984,5.553 14.981,5.516 14.966,5.480 C14.966,5.480 14.965,5.479 14.965,5.479 C14.965,5.478 14.965,5.478 14.965,5.478 C14.965,5.478 12.931,0.799 12.931,0.799 C12.931,0.799 13.875,0.799 13.875,0.799 C14.103,0.799 14.287,0.622 14.287,0.401 C14.287,0.182 14.103,0.004 13.875,0.004 C13.875,0.004 12.314,0.004 12.314,0.004 C12.313,0.004 12.312,0.004 12.311,0.004 C12.311,0.004 12.311,0.004 12.311,0.004 C12.311,0.004 12.310,0.004 12.309,0.004 C12.309,0.004 2.691,0.004 2.691,0.004 C2.690,0.004 2.690,0.004 2.689,0.004 C2.689,0.004 2.689,0.004 2.689,0.004 C2.688,0.004 2.688,0.004 2.687,0.004 C2.687,0.004 1.126,0.004 1.126,0.004 C0.898,0.004 0.713,0.182 0.713,0.401 C0.713,0.622 0.898,0.799 1.126,0.799 C1.126,0.799 2.069,0.799 2.069,0.799 C2.069,0.799 0.035,5.478 0.035,5.478 C0.035,5.478 0.035,5.478 0.035,5.479 C0.035,5.479 0.034,5.480 0.034,5.480 C0.015,5.524 0.008,5.571 0.006,5.617 C0.006,5.623 0.003,5.627 0.003,5.633 C0.003,5.646 0.004,5.657 0.005,5.669 C0.005,5.670 0.005,5.671 0.005,5.672 C0.027,7.081 1.221,8.221 2.689,8.221 C4.169,8.221 5.373,7.062 5.375,5.636 C5.375,5.635 5.375,5.634 5.375,5.633 C5.375,5.633 5.375,5.633 5.375,5.633 C5.375,5.618 5.368,5.605 5.366,5.590 C5.362,5.554 5.359,5.516 5.343,5.480 C5.343,5.480 5.343,5.479 5.343,5.479 C5.343,5.479 5.343,5.479 5.343,5.478 C5.343,5.478 3.309,0.798 3.309,0.798 C3.309,0.798 7.087,0.798 7.087,0.798 C7.087,0.798 7.087,10.202 7.087,10.202 C7.087,10.202 4.545,10.202 4.545,10.202 C4.317,10.202 4.132,10.379 4.132,10.599 C4.132,10.819 4.317,10.996 4.545,10.996 C4.545,10.996 10.456,10.996 10.456,10.996 C10.684,10.996 10.868,10.819 10.868,10.599 C10.868,10.379 10.684,10.202 10.456,10.202 C10.456,10.202 7.912,10.202 7.912,10.202 C7.912,10.202 7.912,0.798 7.912,0.798 C7.912,0.798 11.691,0.798 11.691,0.798 C11.691,0.798 9.658,5.478 9.658,5.478 C9.658,5.478 9.657,5.478 9.657,5.478 C9.657,5.478 9.657,5.479 9.657,5.479 C9.637,5.524 9.630,5.571 9.629,5.617 C9.629,5.623 9.625,5.627 9.625,5.633 C9.625,5.645 9.627,5.657 9.627,5.669 C9.627,5.670 9.627,5.671 9.627,5.671 C9.649,7.080 10.844,8.221 12.311,8.221 C13.792,8.221 14.996,7.062 14.997,5.636 C14.997,5.635 14.997,5.634 14.997,5.633 ZM2.689,1.430 C2.689,1.430 4.343,5.236 4.343,5.236 C4.343,5.236 1.035,5.236 1.035,5.236 C1.035,5.236 2.689,1.430 2.689,1.430 ZM12.311,1.430 C12.311,1.430 13.965,5.236 13.965,5.236 C13.965,5.236 10.657,5.236 10.657,5.236 C10.657,5.236 12.311,1.430 12.311,1.430 Z" id="path-1" class="cls-2" fill-rule="evenodd"/>
</svg>
