<svg xmlns="http://www.w3.org/2000/svg" xmlns:xlink="http://www.w3.org/1999/xlink" preserveAspectRatio="xMidYMid" width="40" height="34" viewBox="0 0 40 34">
  <defs>
    <style>

      .cls-2 {
        fill: #000000;
        stroke: #2d8db4;
        stroke-linejoin: round;
        stroke-width: 2px;
        fill-opacity: 0;
      }
    </style>
  </defs>
  <path d="M14.601,18.283 C15.352,19.329 16.161,20.453 17.165,21.521 C14.876,24.150 11.542,26.542 4.998,26.542 C4.998,26.542 4.998,21.758 4.998,21.758 C10.186,21.758 12.288,20.040 14.147,17.654 C14.296,17.860 14.447,18.069 14.601,18.283 ZM19.722,14.615 C20.191,15.268 20.632,15.880 21.088,16.442 C22.668,14.700 24.653,13.457 28.450,13.216 C28.450,13.216 27.284,16.164 27.284,16.164 C27.235,16.287 27.274,16.425 27.380,16.504 C27.431,16.543 27.493,16.563 27.555,16.563 C27.618,16.563 27.680,16.543 27.733,16.503 C27.733,16.503 34.887,11.010 34.887,11.010 C34.959,10.955 35.001,10.870 35.001,10.779 C35.001,10.689 34.959,10.603 34.887,10.548 C34.887,10.548 27.732,5.055 27.732,5.055 C27.628,4.976 27.483,4.975 27.379,5.054 C27.274,5.133 27.235,5.272 27.283,5.394 C27.283,5.394 28.482,8.424 28.482,8.424 C23.345,8.693 20.315,10.463 18.180,12.564 C18.752,13.266 19.255,13.964 19.722,14.615 ZM27.732,17.485 C27.680,17.444 27.617,17.424 27.555,17.424 C27.493,17.424 27.431,17.444 27.379,17.483 C27.274,17.563 27.235,17.701 27.283,17.823 C27.283,17.823 28.449,20.772 28.449,20.772 C23.016,20.426 21.291,18.030 19.155,15.055 C16.720,11.665 13.689,7.446 4.998,7.446 C4.998,7.446 4.998,12.230 4.998,12.230 C11.229,12.230 13.009,14.707 15.261,17.843 C17.612,21.117 20.512,25.146 28.482,25.564 C28.482,25.564 27.284,28.594 27.284,28.594 C27.235,28.716 27.274,28.854 27.380,28.934 C27.484,29.013 27.629,29.012 27.733,28.932 C27.733,28.932 34.888,23.439 34.888,23.439 C34.959,23.385 35.002,23.299 35.002,23.208 C35.002,23.118 34.960,23.032 34.888,22.978 C34.888,22.978 27.732,17.485 27.732,17.485 Z" id="path-1" class="cls-2" fill-rule="evenodd"/>
</svg>
