<svg xmlns="http://www.w3.org/2000/svg" xmlns:xlink="http://www.w3.org/1999/xlink" preserveAspectRatio="xMidYMid" width="41" height="34" viewBox="0 0 41 34">
  <defs>
    <style>

      .cls-2 {
        fill: #000000;
        stroke: #2d8db4;
        stroke-linejoin: round;
        stroke-width: 2px;
        fill-opacity: 0;
      }
    </style>
  </defs>
  <path d="M36.000,7.979 C36.000,7.979 36.000,18.028 36.000,18.028 C36.000,18.028 33.991,18.451 33.578,18.507 C33.165,18.563 31.870,19.009 30.929,18.044 C29.481,16.557 24.332,11.076 24.332,11.076 C24.332,11.076 23.445,10.144 22.019,10.951 C20.717,11.687 18.786,12.764 17.970,13.189 C17.680,13.406 17.329,13.534 16.949,13.534 C15.965,13.534 15.167,12.680 15.167,11.625 C15.167,10.798 15.658,10.096 16.345,9.831 C18.201,8.628 22.070,6.303 23.685,5.385 C24.671,4.824 25.381,4.776 26.733,5.994 C28.399,7.496 29.881,8.863 29.881,8.863 C29.881,8.863 30.575,9.205 31.135,9.121 C32.307,8.943 36.000,7.979 36.000,7.979 ZM15.514,25.007 C15.763,24.321 15.679,23.553 15.201,23.028 C14.772,22.555 14.146,22.430 13.548,22.577 C13.715,21.944 13.623,21.269 13.190,20.792 C12.759,20.320 12.135,20.196 11.537,20.343 C11.702,19.710 11.611,19.035 11.179,18.557 C10.502,17.814 9.332,17.846 8.564,18.631 C7.799,19.418 7.308,20.840 7.992,21.675 C8.674,22.509 9.455,22.002 10.053,21.856 C9.888,22.490 9.389,23.080 10.001,23.910 C10.612,24.741 11.465,24.238 12.062,24.090 C11.896,24.723 11.419,25.372 12.010,26.143 C12.604,26.914 13.578,26.503 14.219,26.290 C13.971,26.974 13.441,27.708 14.123,28.538 C14.803,29.366 16.378,28.981 17.148,28.195 C17.916,27.410 17.989,26.166 17.315,25.422 C16.850,24.910 16.155,24.791 15.514,25.007 ZM29.524,19.752 C23.994,13.831 26.599,16.619 23.612,13.416 C23.612,13.416 22.712,12.456 21.527,13.013 C20.696,13.403 19.625,13.935 18.817,14.341 C17.930,14.836 17.156,14.988 16.995,14.988 C15.283,14.988 13.895,13.503 13.895,11.672 C13.895,10.484 14.484,9.449 15.362,8.863 C16.597,7.948 19.441,6.327 19.441,6.327 C19.441,6.327 18.576,5.151 16.677,5.151 C14.780,5.151 10.817,7.933 10.817,7.933 C10.817,7.933 9.692,8.705 8.089,8.010 C8.089,8.010 5.000,6.859 5.000,6.859 C5.000,6.859 5.000,18.356 5.000,18.356 C5.000,18.356 5.881,18.631 6.674,18.976 C6.855,18.431 7.140,17.924 7.544,17.508 C8.858,16.167 11.036,16.152 12.233,17.471 C12.593,17.869 12.845,18.352 12.974,18.878 C13.457,19.038 13.891,19.318 14.243,19.706 C14.604,20.102 14.855,20.585 14.985,21.111 C15.468,21.272 15.901,21.553 16.255,21.942 C16.651,22.377 16.915,22.908 17.040,23.484 C17.542,23.641 17.999,23.930 18.366,24.335 C19.083,25.124 19.340,26.197 19.184,27.232 C19.184,27.233 19.184,27.233 19.184,27.233 C19.184,27.233 19.184,27.233 19.184,27.233 C19.184,27.233 19.184,27.233 19.184,27.234 C19.186,27.236 19.188,27.237 19.189,27.239 C19.216,27.272 19.637,27.778 19.904,28.063 C20.435,28.633 21.299,28.631 21.830,28.063 C22.359,27.496 22.361,26.570 21.830,26.001 C21.813,25.982 21.792,25.969 21.774,25.952 C21.775,25.948 21.777,25.943 21.777,25.940 C19.988,24.023 19.895,23.885 20.072,23.696 C20.249,23.506 20.511,23.923 22.513,26.069 C22.522,26.078 22.535,26.087 22.550,26.093 C22.590,26.153 22.630,26.214 22.680,26.267 C23.210,26.836 24.075,26.835 24.606,26.267 C25.136,25.700 25.137,24.774 24.606,24.205 C24.578,24.175 24.546,24.152 24.517,24.124 C24.490,24.092 24.464,24.059 24.433,24.026 C22.606,22.071 22.399,21.699 22.538,21.550 C22.697,21.380 23.548,22.379 25.365,24.325 C25.369,24.325 25.373,24.324 25.377,24.324 C25.910,24.843 26.737,24.830 27.253,24.279 C27.748,23.748 27.775,22.907 27.342,22.335 C27.334,22.296 27.320,22.263 27.296,22.238 C24.996,19.773 25.094,19.736 25.233,19.586 C25.373,19.437 25.383,19.427 27.622,21.824 C27.630,21.834 27.636,21.845 27.645,21.855 C28.175,22.425 29.040,22.423 29.571,21.855 C30.100,21.288 30.102,20.362 29.571,19.792 C29.556,19.778 29.539,19.767 29.524,19.752 Z" id="path-1" class="cls-2" fill-rule="evenodd"/>
</svg>
